<svg xmlns="http://www.w3.org/2000/svg" width="14" height="14.02" viewBox="0 0 14 14.02">
  <title>Asset 1greenmarker</title>
  <g id="Layer_2" data-name="Layer 2">
    <g id="Layer_1-2" data-name="Layer 1">
      <path d="M11.58,9.17a2.42,2.42,0,0,0-1.88.89L4.77,7.59a2.14,2.14,0,0,0,0-1.16L9.7,4a2.42,2.42,0,1,0-.55-1.54A2.27,2.27,0,0,0,9.23,3L4.3,5.48a2.39,2.39,0,0,0-1.88-.89,2.42,2.42,0,0,0,0,4.84A2.39,2.39,0,0,0,4.3,8.54L9.23,11a2.33,2.33,0,0,0-.08.59,2.43,2.43,0,1,0,2.43-2.43Z" style="fill: #fff"/>
    </g>
  </g>
</svg>
