<svg xmlns="http://www.w3.org/2000/svg" width="147.11" height="24" viewBox="0 0 147.11 24">
  <title>Asset 7greenmarker</title>
  <g id="Layer_2" data-name="Layer 2">
    <g id="Layer_1-2" data-name="Layer 1">
      <g>
        <path d="M19,21.91c2.68-.21,5.32-1.11,5.32-3.93V9.07L23.15,7.84,21.82,9.15v6.7l1.1,1-2.54,2.26h-.23L17.66,17l.67-.67V2.68A1.82,1.82,0,0,0,16.91,1V.75A2.41,2.41,0,0,1,18,.55a2.08,2.08,0,0,1,1.87,1.07H20A2.57,2.57,0,0,1,22.1.52a3.49,3.49,0,0,1,.8.1V.9c-.44.13-1.08.67-1.08,2V8.61l3.29-3.16h.23C25.57,5.68,27,7,27.29,7.17a.94.94,0,0,0,.46.13,1.59,1.59,0,0,0,.69-.21v.36a1.74,1.74,0,0,0-.59,1.23v7.73c0,3.42-3.75,5.5-8.81,5.86ZM17.79.93l0,.1a1.54,1.54,0,0,1,1,1.49V16.44L18.2,17l2.1,1.77.62-.51-1.7-1.39.31-.28V2.65A1.83,1.83,0,0,0,17.79.93m5.79,20a3.38,3.38,0,0,0,2-2.93V8.58L24,7l-.59.59L24.74,9V18a3.51,3.51,0,0,1-1.23,2.83Z" style="fill: #231f20"/>
        <path d="M30,8.53a42.22,42.22,0,0,0,5.13-3.08h.26c.95,1,2.36,2.59,3.57,3.67V9.4L33.45,13v2.21a20.2,20.2,0,0,0,3.11,1.49l2.2-2.13.26.28-4.44,4.29h-.26c-1.49-.64-3.41-1.46-4.64-2.16A12.1,12.1,0,0,0,30,14ZM35,18.21c-1.49-.67-2.82-1.21-4-1.85a15.34,15.34,0,0,0,.1-2.39V8.35l-.8.41V14a12.93,12.93,0,0,1-.15,2.78c1.15.64,2.8,1.33,4.31,2Zm-1.59-5.7,2.46-1.67L33.45,8ZM34.22,7l-.67.46c.77.9,1.75,2.06,2.72,3.14l.7-.47C36,9.09,35,7.91,34.22,7" style="fill: #231f20"/>
        <path d="M137.71,21.88c2.67-.21,5.31-1.11,5.31-3.93V9l-1.2-1.23-1.34,1.31v6.7l1.11,1L139,19.08h-.23L136.32,17l.67-.67V2.64A1.81,1.81,0,0,0,135.58,1V.72a2.35,2.35,0,0,1,1.1-.21,2.09,2.09,0,0,1,1.87,1.08h.08a2.57,2.57,0,0,1,2.13-1.1,3,3,0,0,1,.8.1V.87c-.44.13-1.08.67-1.08,2V8.58l3.29-3.16H144c.23.23,1.67,1.54,1.95,1.72a.94.94,0,0,0,.46.13,1.64,1.64,0,0,0,.7-.21v.47a1.69,1.69,0,0,0-.6,1.23v7.62c0,3.42-3.74,5.5-8.8,5.86ZM136.45.9l0,.1a1.54,1.54,0,0,1,1,1.49V16.41l-.54.54L139,18.72l.61-.51-1.69-1.39.3-.28V2.62A1.82,1.82,0,0,0,136.45.9m5.79,20a3.39,3.39,0,0,0,2-2.93V8.55L142.69,7l-.59.59,1.31,1.39V18a3.48,3.48,0,0,1-1.23,2.82Z" style="fill: #231f20"/>
        <path d="M62.48,8.5a41.56,41.56,0,0,0,5.14-3.08h.26c1,1,2.36,2.59,3.57,3.67v.28L66,12.94v2.21a20,20,0,0,0,3.1,1.49l2.21-2.13.26.28-4.44,4.29h-.26c-1.49-.64-3.42-1.47-4.65-2.16a11.62,11.62,0,0,0,.28-3Zm5.09,9.68c-1.49-.67-2.83-1.21-4-1.85a14.17,14.17,0,0,0,.1-2.39V8.32l-.79.41v5.21a13.66,13.66,0,0,1-.15,2.78c1.15.64,2.8,1.33,4.31,2ZM66,12.48l2.46-1.67L66,8ZM66.7,7,66,7.49c.77.9,1.74,2.06,2.72,3.14l.69-.47c-1-1.08-2-2.26-2.75-3.13" style="fill: #231f20"/>
        <path d="M76.4,2.31v13.2a1.39,1.39,0,0,0,1,1.21l.8-.8.23.28-2.82,2.88H75.5a3.12,3.12,0,0,1-2.59-2.85V3.93l-.8-.8L71.29,4,71,3.7,74.19.51h.21Zm-.33,15.82a2.36,2.36,0,0,1-2-2.31V3.36L73,2.23l-.59.59.89.93v12.4a2.74,2.74,0,0,0,2.19,2.57Z" style="fill: #231f20"/>
        <path d="M79.71,8.5a42.32,42.32,0,0,0,5.14-3.08h.25c1,1,2.37,2.59,3.57,3.67v.28l-5.46,3.57v2.21a20,20,0,0,0,3.1,1.49l2.21-2.13.26.28-4.45,4.29h-.25c-1.49-.64-3.42-1.47-4.65-2.16a11.62,11.62,0,0,0,.28-3Zm5.09,9.68c-1.49-.67-2.83-1.21-4-1.85a14.17,14.17,0,0,0,.1-2.39V8.32l-.79.41v5.21a12.69,12.69,0,0,1-.16,2.78c1.16.64,2.8,1.33,4.32,2Zm-1.59-5.7,2.46-1.67L83.21,8ZM84,7l-.67.46c.77.9,1.74,2.06,2.72,3.13l.69-.46c-1-1.08-2-2.26-2.74-3.13" style="fill: #231f20"/>
        <path d="M106.43,9v6.47a1.31,1.31,0,0,0,1,1.18l.8-.77.23.28-2.83,2.88h-.18a3.13,3.13,0,0,1-2.57-2.85V8.83L102.14,8l-.82.82L101,8.6l3.16-3.18h.23l2,2V8.45l2.54-3h.23a22.69,22.69,0,0,0,2,1.8v0l-2.13,2.54h0c-.59-.51-1.39-1.23-1.82-1.67Zm-.31,9.09a2.36,2.36,0,0,1-2-2.31V8.27L103,7.16l-.62.59.9.93v7.47a2.74,2.74,0,0,0,2.18,2.57Zm1.34-10.25c.43.41,1.05,1,1.56,1.44l.52-.6c-.49-.43-1.23-1.07-1.59-1.43Z" style="fill: #231f20"/>
        <path d="M114.51,19.08l-3.05-2v-4l3.13-2.18a9.49,9.49,0,0,1-2.85-2.21V8.4a22.55,22.55,0,0,0,4.21-3h.23l3.93,1.85a1.21,1.21,0,0,0,.57.15,1.68,1.68,0,0,0,.74-.2v.41a1.41,1.41,0,0,0-.59,1.15v6.68a1.4,1.4,0,0,0,1.08,1.26l.8-.8.23.28-2.83,2.88h-.18a3.66,3.66,0,0,1-2.54-2.62l-2.69,2.62Zm.67-1-2.54-1.69V12.68l-.77.57v3.62l2.72,1.82Zm2.16-6.49V9.53l-3.6-1.9a16.66,16.66,0,0,1-1.54,1,10.59,10.59,0,0,0,5.14,3m3.18,6.54a2.61,2.61,0,0,1-2-2.41V8.81l-3.8-1.9-.67.48,3.67,1.91v6.75a3.18,3.18,0,0,0,2.18,2.67ZM117.34,16V12a12.26,12.26,0,0,1-2.39-.92v5l1.41.87Z" style="fill: #231f20"/>
        <path d="M90,17V8.56l4.47-3.11h.25c.88.36,3.73,1.59,4.09,1.75a1.3,1.3,0,0,0,.46.1,2.21,2.21,0,0,0,.85-.23v.46a1.89,1.89,0,0,0-.62,1.16v7.14a4.39,4.39,0,0,0,1,3.32v.28c-1,1-3.26,3.34-4.27,4.57h-.18a8.93,8.93,0,0,0-3.92-1,4.86,4.86,0,0,0-3,.93l-.2-.18c.77-1.8,2.41-3.6,4.49-3.6a10.14,10.14,0,0,1,4.47,1.34,8.6,8.6,0,0,1-1.93-5l-2.64,2.55h-.21Zm2.16,4.94A3,3,0,0,0,89.77,23v.14a4.49,4.49,0,0,1,2.37-.54,9,9,0,0,1,3.92.9l.52-.62a10.22,10.22,0,0,0-4.44-1m1.07-3.25.62-.56-2.67-1.72V8.25l-.77.54v8Zm4-10.37L93.47,6.73v.83L96.4,8.81v7.61a7.94,7.94,0,0,0,1.82,4.78l.59-.59a7.13,7.13,0,0,1-1.62-4.32ZM96,16V9.07L93.47,8v7.88l1.59,1Z" style="fill: #231f20"/>
        <path d="M128.22,8.58l3.29-3.13h.23c.23.23,1.74,1.59,2,1.75a1,1,0,0,0,.44.1,1.37,1.37,0,0,0,.69-.21v.47a1.72,1.72,0,0,0-.59,1.23v8.06a7,7,0,0,0-3.75,2.52h-.1l-2.18-.46v1.78l1.13,1L126.68,24h-.13L124,21.82l.67-.72v-3c-.26-.05-.78-.13-1-.2v-.37A2.24,2.24,0,0,0,124.75,16V8.87l-.79-.8-.83.82-.28-.26L126,5.45h.23l2,2Zm-3.08,12.7-.54.51,2,1.75.61-.54-1.59-1.34.28-.28v-13L124.8,7.22l-.56.57.9.92Zm5.62-5V9.1l-1.21-1.24-1.33,1.26v6.71l2.54.48m-.38,2.62a4.35,4.35,0,0,1,.56-.64l-2.72-.56v.74Zm-.57-11.3L131.17,9v7.32l.8-.44V8.56L130.43,7Z" style="fill: #231f20"/>
        <path d="M1.05,11.68c0-3.21,2.44-5.44,4.7-6.44l.16.2A5.09,5.09,0,0,0,4.49,9.27,6.9,6.9,0,0,0,6,14.07a2.14,2.14,0,0,0,.49-1.36V9.37l4.08-2.92.18.23a2.74,2.74,0,0,0-.56,1.77v2.13c0,1.49-2.44,3.08-4,3.7a5.52,5.52,0,0,0,3.93,1.38,8.83,8.83,0,0,0,1.51-.1V6.24A19.36,19.36,0,0,1,7.94,5.5a13.79,13.79,0,0,0-3.57-.7c-1.65,0-3.65.57-3.68,3a6.41,6.41,0,0,0,.06.7l-.31.1A5.93,5.93,0,0,1,0,6.37,5.31,5.31,0,0,1,5.52.92a14.38,14.38,0,0,1,4,.7,14.31,14.31,0,0,0,3.83.69.89.89,0,0,0,1-.95,1,1,0,0,0-.79-1l0-.31c1.46.26,3.08,1.13,3.08,3,0,2.23-1.62,3.29-4.34,3.29h-.28v9.24A5.45,5.45,0,0,0,16,12.92l.28.15c-1,3.16-3.34,6.16-7.5,6.16s-7.68-2.46-7.68-7.55M12.33,5.14c-3,0-5.76-1.49-8-1.49A3.63,3.63,0,0,0,.73,5.86l.09,0C1.49,4.78,3,4.42,4.37,4.42c2.2,0,4.93,1.49,8,1.49,2.44,0,3.85-.83,4.08-2.78l-.13,0c-.36,1.49-1.51,2-4,2M3.65,7a6.68,6.68,0,0,0-2.18,4.7c0,4.75,3.2,7.14,7.23,7.14A7.46,7.46,0,0,0,14,16.43l-.07-.1A7.93,7.93,0,0,1,8.7,18.05c-3.26,0-6.41-2-6.41-6.37A8.3,8.3,0,0,1,3.74,7.07Zm4,5.5L7.65,9l-.77.54v3.26a2.4,2.4,0,0,1-.18.9h.1a1.72,1.72,0,0,0,.87-1.21" style="fill: #231f20"/>
        <path d="M45.79,11.68c0-3.21,2.44-5.44,4.7-6.44l.15.2a5.12,5.12,0,0,0-1.41,3.83,6.9,6.9,0,0,0,1.52,4.8,2.19,2.19,0,0,0,.48-1.36V9.37l4.09-2.92.18.23a2.74,2.74,0,0,0-.57,1.77v2.13c0,1.49-2.44,3.08-4,3.7a5.52,5.52,0,0,0,3.93,1.38,8.83,8.83,0,0,0,1.51-.1V6.24a19.61,19.61,0,0,1-3.75-.74,13.63,13.63,0,0,0-3.57-.7c-1.64,0-3.64.57-3.67,3,0,.21,0,.44,0,.7l-.3.1a5.93,5.93,0,0,1-.44-2.18A5.31,5.31,0,0,1,50.26.92a14.38,14.38,0,0,1,4,.7,14.24,14.24,0,0,0,3.83.69.89.89,0,0,0,1-.95,1,1,0,0,0-.79-1L58.35,0c1.46.26,3.08,1.13,3.08,3,0,2.23-1.62,3.29-4.34,3.29h-.28v9.24a5.43,5.43,0,0,0,3.87-2.59l.29.15c-1,3.16-3.34,6.16-7.5,6.16s-7.68-2.46-7.68-7.55M57.06,5.14c-3,0-5.75-1.49-8-1.49a3.63,3.63,0,0,0-3.63,2.21l.09,0c.67-1.13,2.18-1.49,3.54-1.49,2.21,0,4.93,1.49,8,1.49,2.44,0,3.85-.83,4.09-2.78l-.13,0c-.36,1.49-1.52,2-4,2M48.39,7a6.69,6.69,0,0,0-2.19,4.7c0,4.75,3.21,7.14,7.24,7.14a7.48,7.48,0,0,0,5.3-2.39l-.07-.1a7.93,7.93,0,0,1-5.23,1.72c-3.26,0-6.41-2-6.41-6.37a8.3,8.3,0,0,1,1.44-4.61Zm4,5.5,0-3.49-.77.54v3.26a2.4,2.4,0,0,1-.18.9h.09a1.71,1.71,0,0,0,.88-1.21" style="fill: #231f20"/>
      </g>
    </g>
  </g>
</svg>
