<svg xmlns="http://www.w3.org/2000/svg" width="40" height="40" viewBox="0 0 40 40">
  <title>Asset 2greenmarker</title>
  <g id="Layer_2" data-name="Layer 2">
    <g id="Layer_1-2" data-name="Layer 1">
      <g>
        <rect x="5.86" y="5.86" width="28.28" height="28.28" transform="translate(-8.28 20) rotate(-45)"/>
        <path d="M12.6,22.11c0-3.19,2.38-5.37,4.66-6.4l.2.28A4.84,4.84,0,0,0,16,19.68a6.62,6.62,0,0,0,1.5,4.69A2.12,2.12,0,0,0,18,23v-3.1L22,17l.23.3a2.86,2.86,0,0,0-.58,1.71V21c0,1.52-2.38,3-3.91,3.65a5.42,5.42,0,0,0,3.71,1.25,11,11,0,0,0,1.58-.09v-9a16.87,16.87,0,0,1-3.45-.68,18,18,0,0,0-4-.8c-1.58,0-3.48.53-3.53,2.81,0,.22,0,.45.05.7l-.38.12a6,6,0,0,1-.42-2.13,5.19,5.19,0,0,1,5.41-5.36,16.64,16.64,0,0,1,4.23.78,14.25,14.25,0,0,0,3.71.67.86.86,0,0,0,1-.9.92.92,0,0,0-.8-1l.07-.4c1.48.28,3.06,1.16,3.06,3,0,2.13-1.6,3.23-4.26,3.23h-.22v8.87a5.34,5.34,0,0,0,3.6-2.47l.36.18c-.91,3.05-3.34,6-7.4,6s-7.49-2.33-7.49-7.29" style="fill: #fff"/>
      </g>
    </g>
  </g>
</svg>
