<svg xmlns="http://www.w3.org/2000/svg" width="116.79mm" height="36.22mm" viewBox="0 0 331.04 102.67">
  <title>Asset 1greenmarker</title>
  <g id="Layer_2" data-name="Layer 2">
    <g id="Layer_1-2" data-name="Layer 1">
      <path d="M292.06,57.7a9.42,9.42,0,0,1-.83-5.78A34.36,34.36,0,0,1,293,44.26c.94-1.36,1.22-3.08,2-4.54l-.14-.14c.91-.8,1-2.46,1.51-3.28,1.85.34,3,1.85,4.26,3.42.77,2,.2,3.91-.58,5.77a134.78,134.78,0,0,1-7.25,14c0-.72-1-1.23-.83-1.77m-1.77-2.6a2.94,2.94,0,0,1-2.2-1.24c-2.2-2.37-4.84-4.94-6.46-7.54-.28-1.69-1.66-3.32-.95-5.09,1.21-2.42,3.75-3.45,6-4.11.31-.88.88.11,1.37-.4,2.29-.51,4.6-1.88,7.14-1a32.94,32.94,0,0,0-3.71,8.51c-.49,0-.32.58-.55.8-1.22,3.43-1.11,6.26-.68,10m-2.75,14.54c-8.07-1-16.71-.31-24,2.6-.14-1.37-.42-2.65.26-3.86,4.33-5.57,13-4.4,18.66-2.59a7.33,7.33,0,0,0,2.2.68c.57,1.65,3,1.11,2.88,3.17m-5.76,8.08c-3.84,2.4-8.6,5.83-13.29,2.89A11.7,11.7,0,0,1,264,74.7a8,8,0,0,1,5.91-1.63c.38,0,.8-.63,1.09,0,1-.58,1.91-.09,3-.43l.25.28a23.69,23.69,0,0,1,7.56.84,4.69,4.69,0,0,1,3,.79c-.27,1.32-2,2.29-3,3.17m12-13.76c-.29-1.2-.09-2.59-.69-3.66.68-.52,1.25-1.18,2.19-1.09.77-1,2.17-.8,2.86-1.79l.43.42a6,6,0,0,0,2.89-1.37c1.71-.44,3.94-1.12,4.37-3.17,2.71-2.75,3.2-6.17,3.85-9.86-.43-1.15-.23-2.52-1.25-3.43.39-.63-.34-1.29-.69-1.67A28.47,28.47,0,0,0,303,33.29c-.4-1-1.86-1.17-2.6-2.2-2.2-1.22-4.66-2.69-7.15-2.48l-.11-.4a18.45,18.45,0,0,0-3.17.54c-1.35-.26-2.57.48-4,.43-2.63,1-5.48,1.74-7.69,3.53-2.11.78-3.56,2.7-4.8,4.41-.91.48-1.08,1.74-1.37,2.74.18,0,.46-.11.55.15s-.06.2-.12.25-.34.06-.43-.11v1.63a7.13,7.13,0,0,0,1,2.75c1,3.25,3.57,5.9,5.48,8.77h-8c-3.77.79-7.63,1-11.08,3a12,12,0,0,0-4.81,6.32c-.57,3.78-1.29,8.26,0,11.91,0,.69.52,1.55.12,2.06h.28c2,6.23,6,13.81,13,15.77,4.26.94,7.86-1.65,10.14-4.65,1-.6,1.35-1.93,2.21-2.46-.37-1.4,1.14-1.72,1.36-2.89,2.61-1.91,2.55-5.59,5.35-7.54.37.12.88-.23,1.12.29-.18,4.68-1.63,8.83-3,13a24.64,24.64,0,0,1-9.06,13.14c0,.76-1.2.86-.93,1.38l1.62-.54c1.45-.2,2.54-2.09,3.71-3H281c5.77-6.08,10.25-12.69,12.49-20.17a25.3,25.3,0,0,0,.28-10.29c.11-.67-.63-1.36-.55-1.93Z" style="fill: #008e5a"/>
      <path d="M293.58,66.22c.14.85,1.05,1,1.77,1.08,1.8-.55,3.88-.89,4.79-2.88,3.6-2.26,7-5,11-6.32,3.43-1,8.46-3,11.55.14,2,6.89-2.18,13-5.24,18.65-2.05,2.24-3.28,6.32-7,5.64-1.37-.69-3-1.89-3.14-3.58-.14-.71-1-.74-.29-1.51-.94-.82-.1-2.36-.4-3.28A5.88,5.88,0,0,1,309.49,70a5.15,5.15,0,0,1,5.2,1.09,6.82,6.82,0,0,1-1.37,6.59h.43a22,22,0,0,0,4-4.65c-.14-.52.21-.86.4-1.26s.43-1,0-1.23c-.05-.2.17-.25.29-.4a.72.72,0,0,1-.29-1,9.54,9.54,0,0,0-5.2-4.12c-5.77-2-11.12,1.35-15.23,5.09-.17-.09-.14-.28-.14-.42-.86.74-.4,2.23-1.23,2.74a11.69,11.69,0,0,1-.4,4c.75.51.08,1.54.54,2,.42.69-.32,1.72.4,2.17.72,2.81,3.28,4.56,5.35,6.6,1,.72,2.39.72,3.16,1.64.55,1.17,1.8-.06,2.46,1.11,1.48.18,3.29.77,4.94.55a4.58,4.58,0,0,0,2.61-.69,8.92,8.92,0,0,0,4.54-2.74c.63-.2.77-1.09,1.37-1.23.55-1.38,1.77-2.41,2.46-3.72-.4-1,1.09-1.2,1.09-2.19-.13,0-.2-.07-.27-.12,1.52-2.32,3-5.4,4.52-8.12-.17-.6.46-1.23.83-1.77a20.6,20.6,0,0,0,.68-11.12A13.35,13.35,0,0,0,325,52.35a16.91,16.91,0,0,0-14.41.94c-.32,0-.66,0-.83.29l-.12-.14c-5.62,2.77-11.4,6.11-15.77,11Z" style="fill: #5fa82c"/>
      <path d="M14.55,39.65c-.23,10.57-.38,21.14-.38,31.71,0,11.1.15,14.62.54,21.68l-.46.45c-6.36,0-7.89,0-13.64.23l-.38-.46c.31-8,.46-12.64.46-21.67C.69,52.06.46,48.15,0,39.88l.31-.47c5.51.08,7.27.08,13.86-.22Z" style="fill: #491d6e"/>
      <path d="M45.42,65.39a5.68,5.68,0,0,0-3.14-1.08c-5.21,0-5.21,5.06-5.21,8.51,0,5.28.46,13.93.77,20.14l-.39.53c-6.12-.08-7.35,0-13,.23L24,93.26c.16-6.36.23-12.64.23-18.92,0-10.64-.23-14.09-.69-19.84L24,54C29.56,53.2,31,53,36.69,51.75l.61.61-.23,7c2.45-5.67,6-7.43,9.12-7.43.53,0,1.07.08,1.6.08l.46.53L46.11,65.07Z" style="fill: #491d6e"/>
      <path d="M87.24,82.39,86.7,91l-.46.62c-4.06,1.61-6.81,2.75-13.17,2.75-5.52,0-15.93-.92-20.38-11.25a25.62,25.62,0,0,1-1.83-10c0-13.25,8-21.14,20-21.14a19.52,19.52,0,0,1,5.44.69c2.6.61,8.5,2.45,11.18,11.49A45.17,45.17,0,0,1,88.7,75.57l-.46.53-24.75.47a10.89,10.89,0,0,0,1.69,4.67c1.84,2.76,5,4.21,9.58,4.21A23.4,23.4,0,0,0,86.7,82.16ZM76.29,68.14a9.36,9.36,0,0,0-1.15-5.28,5.89,5.89,0,0,0-8-1.84c-2.91,1.84-3.44,5-3.68,7.43Z" style="fill: #491d6e"/>
      <path d="M108.76,93.49c-5.59-.08-7.66,0-12.79.23l-.46-.53C95.82,85.6,96,81,96,72.74c0-4.52,0-9-.07-13.56-.16-12.41-.23-14.94-1-24.29l.3-.45,13.1-2.07.54.54c-.31,8.27-.39,11.72-.39,19,0,24.2.39,32.24.77,41.06Z" style="fill: #491d6e"/>
      <path d="M152.11,76.34c0,7.19,0,9.11.54,16.62l-.38.53c-5-.08-6.67,0-12.18.23l-.46-.53V90.35A15.8,15.8,0,0,1,129,94.41c-7.5,0-13.4-5.28-13.4-13.48a12.22,12.22,0,0,1,5.74-10.48c4.6-2.84,8.89-3.68,18.08-4.91a4.79,4.79,0,0,0-1-3.29c-1-1-2.14-1.46-5-1.46-5.13,0-10.11,2-12.79,3.06l-.61-.3.38-8.35.46-.62a46.73,46.73,0,0,1,15-2.52c9.81,0,12.87,3.06,14.41,5.52,2,3.21,2,6.2,1.91,13.09Zm-12.56-2.76c-5.21.69-11.26,1.53-11.26,6.59,0,3.21,2.3,4.67,5.06,4.67a12.41,12.41,0,0,0,6.2-2Z" style="fill: #491d6e"/>
      <path d="M198.14,93.41c-6.12,0-7.43.08-12.48.24l-.46-.46c0-2.61.08-5.29.08-7.9,0-2.9-.08-13.4-.23-15.92-.23-2.76-.62-7.28-4.83-7.28-2.45,0-4.29,1.3-5.9,2.38.08,13.7.15,16.69.61,28.49l-.46.45c-6.12,0-7.27,0-12.79.24l-.45-.46c.07-4.91.15-9.81.15-14.71a214,214,0,0,0-1.07-24l.46-.53c5.74-.77,7-1,12.94-2.22l.76.54-.15,4.21c3.53-2.07,7.59-4.52,12.26-4.52,2.75,0,7.12.61,9.5,4.6,1.91,3.13,2,6.66,2.06,14v6c.16,7.51.16,9.65.54,16.39Z" style="fill: #491d6e"/>
      <path d="M244.56,93.49c-5.74,0-7.2,0-12.49.23l-.38-.46.15-3a14,14,0,0,1-10.11,4.13,16.14,16.14,0,0,1-10-3.37c-4.52-3.75-6.13-9.72-6.13-15.7,0-7.89,2.23-14.24,7.58-18.38,5.83-4.6,13-4.45,18.77-4.29.08-8.73,0-10.64-.46-17.84l.38-.46,12.64-2,.54.46c-.31,10.12-.62,18.46-.62,38.68,0,10,.23,14.63.54,21.53ZM229.32,61.63c-8.58,0-10.27,6.59-10.27,12.48,0,1.54,0,11,7.43,11a9.69,9.69,0,0,0,5.21-1.84c.23-9.26.31-11.25.23-21.44a17.52,17.52,0,0,0-2.6-.23" style="fill: #491d6e"/>
      <g>
        <path d="M16.4,5.84h3.72V20H16.4Z" style="fill: #491d6e"/>
        <path d="M50.4,20.94a5.52,5.52,0,0,0,4.26,1.76c2.4,0,3.81-1.29,3.81-3.64v-.94a5,5,0,0,1-3.95,1.62c-3.11,0-5.61-2.3-5.61-6.54V5.84h3.72V13c0,2.65,1,3.86,2.61,3.86s2.58-1.21,3.23-2v-9h3.72V18.89c0,4.42-3,6.86-7.53,6.86a8.59,8.59,0,0,1-5.93-2.11Z" style="fill: #491d6e"/>
        <path d="M90.41,19a7.64,7.64,0,0,1-4.57,1.31c-3,0-4.88-1.7-4.88-4.45V5.84h3.72v8.59c0,2,1,2.61,2.61,2.61s2.2,0,3.12,0V5.84h3.73V20H90.41Z" style="fill: #491d6e"/>
        <path d="M118.7,6.81a7.74,7.74,0,0,1,4.57-1.31c3,0,4.88,1.71,4.88,4.46V20h-3.72V11.43c0-2-1-2.61-2.61-2.61s-2.2,0-3.12,0V20H115V.45h3.73Z" style="fill: #491d6e"/>
        <path d="M235.66,6.8a7.64,7.64,0,0,1,4.57-1.31c3,0,4.88,1.7,4.88,4.45V20h-3.72V11.41c0-2-1-2.61-2.61-2.61s-2.2,0-3.12,0V20h-3.73V.43h3.73Z" style="fill: #491d6e"/>
        <path d="M176,16.48V9.09h-2.45l.94-3.25H176V2h3.76V5.84h2.87V9.09h-2.87v6.39c0,.88.46,1.56,1.29,1.56a2.09,2.09,0,0,0,1.29-.41l.79,2.81a4.61,4.61,0,0,1-3.11.91C177.42,20.35,176,19,176,16.48Z" style="fill: #491d6e"/>
        <polygon points="13.38 8.31 13.38 8.27 4.53 8.27 4.53 4.02 13.58 4.02 13.58 0.44 0.36 0.44 0.36 20 4.53 20 4.53 11.85 12.36 11.85 13.38 8.31" style="fill: #491d6e"/>
        <path d="M222.75,16.48V9.09H220.3l.94-3.25h1.51V2h3.76V5.84h2.87V9.09h-2.87v6.39c0,.88.46,1.56,1.29,1.56a2.09,2.09,0,0,0,1.29-.41l.79,2.81a4.61,4.61,0,0,1-3.11.91C224.16,20.35,222.75,19,222.75,16.48Z" style="fill: #491d6e"/>
        <path d="M201.83,10.35l-3,9.65h-4L190.54,5.84h3.87l2.64,9.53,3.11-9.53h3.31l3.11,9.53,2.64-9.53h3.87L208.78,20h-4Z" style="fill: #491d6e"/>
        <polygon points="20.18 3.42 20.18 0 16.5 0.83 16.5 3.42 20.18 3.42" style="fill: #491d6e"/>
        <g>
          <path d="M214.56,5.84h3.72V20h-3.72Z" style="fill: #491d6e"/>
          <polygon points="218.34 3.42 218.34 0 214.66 0.83 214.66 3.42 218.34 3.42" style="fill: #491d6e"/>
        </g>
        <path d="M71.56,5.59c-4.66,0-7.17,2.78-7.17,6.79v1.28c0,4,2.51,6.8,7.2,6.8s7.16-2.78,7.16-6.8V12.38C78.75,8.37,76.25,5.59,71.56,5.59ZM75,13.66c0,2.2-1.09,3.79-3.4,3.79s-3.43-1.59-3.43-3.79V12.38c0-2.19,1.08-3.79,3.4-3.79S75,10.19,75,12.38Z" style="fill: #491d6e"/>
        <path d="M38.49,16.74a2.17,2.17,0,0,1-1.13.3c-.82,0-1.29-.68-1.29-1.56V.44H32.35v16c0,2.52,1.38,3.87,4,3.87a4.57,4.57,0,0,0,3.08-.91l-.06-.21Z" style="fill: #491d6e"/>
        <path d="M30,16.74a2.17,2.17,0,0,1-1.13.3c-.82,0-1.29-.68-1.29-1.56V.44H23.82v16c0,2.52,1.38,3.87,4,3.87a4.57,4.57,0,0,0,3.08-.91l-.06-.21Z" style="fill: #491d6e"/>
        <path d="M167.55,11a3.5,3.5,0,0,1,2.72-1.49h.9l1-4h-.1a6.08,6.08,0,0,0-4.52,2.26V5.84h-3.72V20h3.72Z" style="fill: #491d6e"/>
        <path d="M100.83,11a3.5,3.5,0,0,1,2.72-1.49h.9l1-4h-.1a6.08,6.08,0,0,0-4.52,2.26V5.84H97.11V20h3.72Z" style="fill: #491d6e"/>
        <path d="M143.49,15.86a9.35,9.35,0,0,1-5.43,1.67,3.3,3.3,0,0,1-3.34-2.47l10.41-1.58V12.35c0-4-2.51-6.79-7.2-6.79s-7.16,2.78-7.16,6.79v1.28c0,4,2.5,6.8,7.19,6.8a10.53,10.53,0,0,0,6.41-2Zm-9-3.51c0-2.19,1.08-3.79,3.4-3.79a3.17,3.17,0,0,1,3.37,3l-6.77,1Z" style="fill: #491d6e"/>
        <path d="M153.93,5.69c-4.66,0-7.16,2.78-7.16,6.8v1.07a6.48,6.48,0,0,0,6.1,6.79A6.68,6.68,0,0,0,157.19,19v1h3.72V5.7Zm3.26,11.53-3.23,0c-2.32,0-3.43-1.6-3.43-3.8v-1c0-2.2,1.09-3.79,3.4-3.79h3.26Z" style="fill: #491d6e"/>
      </g>
    </g>
  </g>
</svg>
