<svg xmlns="http://www.w3.org/2000/svg" width="185.03" height="30" viewBox="0 0 185.03 30">
  <title>Asset 8greenmarker</title>
  <g id="Layer_2" data-name="Layer 2">
    <g id="Layer_1-2" data-name="Layer 1">
      <g>
        <text transform="translate(0 18.07)" style="font-size: 10px;fill: #333;font-family: TelesansText-Regular, Telesans Text">B<tspan x="5.95" y="0" style="letter-spacing: -0.0109375em">r</tspan><tspan x="9.31" y="0" style="letter-spacing: -0.000048828125em">o</tspan><tspan x="14.99" y="0" style="letter-spacing: -0.00400390625em">u</tspan><tspan x="20.6" y="0">ght </tspan><tspan x="37.49" y="0" style="letter-spacing: -0.0099609375em">t</tspan><tspan x="40.98" y="0" style="letter-spacing: -0.000048828125em">o </tspan><tspan x="49.07" y="0" style="letter-spacing: -0.010009765625em">y</tspan><tspan x="53.98" y="0" style="letter-spacing: 0.000048828125em">ou </tspan><tspan x="67.72" y="0" style="letter-spacing: -0.01396484375em">b</tspan><tspan x="73.29" y="0">y</tspan></text>
        <g>
          <path d="M173.64,16.86a2.74,2.74,0,0,1-.25-1.69,10.56,10.56,0,0,1,.53-2.24c.28-.4.36-.9.6-1.32l0,0c.27-.24.29-.72.44-1a2.27,2.27,0,0,1,1.25,1,2.19,2.19,0,0,1-.17,1.68,39.51,39.51,0,0,1-2.12,4.09c0-.21-.3-.36-.24-.52m-.52-.76a.86.86,0,0,1-.64-.36,15,15,0,0,1-1.89-2.21c-.08-.49-.49-1-.28-1.48a2.61,2.61,0,0,1,1.77-1.2c.09-.26.25,0,.4-.12.67-.15,1.34-.55,2.08-.28a9.53,9.53,0,0,0-1.08,2.48c-.14,0-.09.17-.16.24a5.89,5.89,0,0,0-.2,2.93m-.8,4.25a14.45,14.45,0,0,0-7,.76,1.81,1.81,0,0,1,.08-1.13c1.27-1.63,3.81-1.28,5.45-.76a2,2,0,0,0,.65.2c.16.48.89.33.84.93m-1.69,2.36c-1.12.7-2.51,1.7-3.88.85a3.5,3.5,0,0,1-1.33-1.73,2.37,2.37,0,0,1,1.73-.48c.11,0,.23-.18.32,0,.29-.17.56,0,.88-.13l.08.09a6.86,6.86,0,0,1,2.2.24,1.44,1.44,0,0,1,.89.23c-.08.39-.58.67-.89.93m3.5-4a4.14,4.14,0,0,0-.21-1.07c.2-.15.37-.34.64-.32.23-.29.64-.23.84-.52l.12.12a1.76,1.76,0,0,0,.85-.4c.5-.13,1.15-.33,1.28-.93a4.94,4.94,0,0,0,1.12-2.88c-.12-.33-.06-.73-.36-1,.11-.18-.1-.38-.2-.49a8.52,8.52,0,0,0-1.37-1.47c-.11-.3-.54-.35-.76-.65A4,4,0,0,0,174,8.36l0-.12a5.5,5.5,0,0,0-.93.16c-.39-.07-.75.14-1.15.13a7.31,7.31,0,0,0-2.25,1,3.29,3.29,0,0,0-1.4,1.29c-.27.14-.32.5-.4.8,0,0,.13,0,.16,0a.06.06,0,0,1,0,.07s-.1,0-.12,0v.48a1.86,1.86,0,0,0,.28.8,10.44,10.44,0,0,0,1.6,2.56h-2.33a10.08,10.08,0,0,0-3.23.89,3.51,3.51,0,0,0-1.41,1.84,7.72,7.72,0,0,0,0,3.48c0,.21.15.46,0,.61h.08c.59,1.82,1.75,4,3.81,4.6a3,3,0,0,0,3-1.36c.28-.17.39-.56.64-.72-.11-.4.34-.5.4-.84.76-.56.75-1.63,1.56-2.2.11,0,.26-.07.33.08a13.08,13.08,0,0,1-.89,3.81A7.2,7.2,0,0,1,169,29.6c0,.22-.35.25-.27.4l.47-.16c.42-.06.74-.61,1.08-.88h.08A14.68,14.68,0,0,0,174,23.07a7.22,7.22,0,0,0,.08-3c0-.2-.18-.4-.16-.57Z" style="fill: #00865a"/>
          <path d="M174.08,19.35c0,.25.31.28.52.31.53-.16,1.13-.25,1.4-.84A16.33,16.33,0,0,1,179.21,17c1-.29,2.47-.87,3.37,0,.58,2-.63,3.79-1.53,5.45-.6.65-1,1.84-2,1.64-.41-.2-.89-.55-.92-1,0-.21-.3-.22-.09-.44-.27-.24,0-.69-.11-1a1.71,1.71,0,0,1,.84-1.2,1.5,1.5,0,0,1,1.52.31,2,2,0,0,1-.4,1.93H180a6.33,6.33,0,0,0,1.16-1.36c0-.15.07-.25.12-.37s.13-.28,0-.36.05-.07.09-.11a.22.22,0,0,1-.09-.29,2.82,2.82,0,0,0-1.52-1.2c-1.68-.59-3.25.39-4.45,1.49-.05,0,0-.09,0-.13-.25.22-.11.65-.36.8a3.64,3.64,0,0,1-.11,1.17c.21.15,0,.45.15.6s-.09.5.12.64c.21.82,1,1.33,1.56,1.92.29.21.7.21.93.48s.52,0,.72.33a6.11,6.11,0,0,0,1.44.16,1.4,1.4,0,0,0,.76-.2,2.69,2.69,0,0,0,1.33-.8c.18-.06.22-.32.4-.36A11.41,11.41,0,0,1,182.9,24c-.12-.29.31-.35.31-.64,0,0-.05,0-.07,0,.44-.68.88-1.58,1.32-2.38-.05-.17.13-.36.24-.51a6.09,6.09,0,0,0,.2-3.25,3.85,3.85,0,0,0-1.64-1.92,4.94,4.94,0,0,0-4.21.27c-.1,0-.19,0-.24.09l0,0a14.82,14.82,0,0,0-4.61,3.2Z" style="fill: #5fa02c"/>
          <path d="M92.55,11.59q-.1,4.62-.11,9.26c0,3.25,0,4.27.16,6.34l-.14.13c-1.86,0-2.3,0-4,.06l-.11-.13c.09-2.33.13-3.69.13-6.33,0-5.71-.07-6.85-.2-9.27l.09-.13c1.61,0,2.12,0,4-.07Z" style="fill: #491e6e"/>
          <path d="M101.57,19.11a1.6,1.6,0,0,0-.92-.32c-1.52,0-1.52,1.48-1.52,2.49,0,1.54.13,4.07.22,5.88l-.11.16c-1.79,0-2.15,0-3.8.06l-.14-.13c0-1.86.07-3.69.07-5.53,0-3.11-.07-4.12-.2-5.79l.13-.14c1.64-.24,2.06-.31,3.72-.67l.18.18-.07,2.06c.72-1.66,1.75-2.17,2.66-2.17l.47,0,.14.16L101.77,19Z" style="fill: #491e6e"/>
          <path d="M113.79,24.08l-.16,2.52-.13.18a8.65,8.65,0,0,1-3.85.81c-1.61,0-4.66-.27-6-3.29a7.43,7.43,0,0,1-.54-2.93c0-3.88,2.33-6.18,5.84-6.18a5.64,5.64,0,0,1,1.59.2,4.34,4.34,0,0,1,3.27,3.36,13.15,13.15,0,0,1,.35,3.33l-.13.16-7.23.13a3.25,3.25,0,0,0,.49,1.37,3.13,3.13,0,0,0,2.8,1.23,6.89,6.89,0,0,0,3.49-1Zm-3.2-4.17a2.68,2.68,0,0,0-.34-1.54,1.58,1.58,0,0,0-1.43-.79,1.56,1.56,0,0,0-.89.25A2.69,2.69,0,0,0,106.85,20Z" style="fill: #491e6e"/>
          <path d="M120.08,27.32c-1.64,0-2.24,0-3.74.06l-.13-.15c.09-2.22.13-3.56.13-6,0-1.32,0-2.64,0-4,0-3.62-.07-4.36-.29-7.09l.09-.14,3.82-.6.16.16C120,12,120,13,120,15.16c0,7.08.11,9.43.22,12Z" style="fill: #491e6e"/>
          <path d="M132.74,22.31c0,2.1,0,2.66.16,4.85l-.11.16c-1.46,0-1.95,0-3.56.06l-.13-.15V26.4A4.65,4.65,0,0,1,126,27.59a3.78,3.78,0,0,1-3.92-3.94,3.58,3.58,0,0,1,1.68-3.07c1.34-.83,2.59-1.07,5.28-1.43a1.43,1.43,0,0,0-.29-1,1.8,1.8,0,0,0-1.46-.43,10.17,10.17,0,0,0-3.73.9l-.18-.09.11-2.44.13-.18a13.7,13.7,0,0,1,4.39-.74c2.87,0,3.76.9,4.21,1.61.58.94.58,1.82.56,3.83Zm-3.67-.81c-1.52.2-3.29.45-3.29,1.93a1.33,1.33,0,0,0,1.48,1.36,3.56,3.56,0,0,0,1.81-.58Z" style="fill: #491e6e"/>
          <path d="M146.2,27.3c-1.8,0-2.18,0-3.65.06l-.14-.13c0-.76,0-1.54,0-2.31s0-3.91-.07-4.65-.18-2.13-1.41-2.13a3,3,0,0,0-1.72.7c0,4,0,4.87.17,8.32l-.13.14c-1.79,0-2.13,0-3.74.06l-.13-.13c0-1.44,0-2.87,0-4.3a62,62,0,0,0-.31-7l.13-.16a38.07,38.07,0,0,0,3.79-.65l.22.16,0,1.23a7.13,7.13,0,0,1,3.58-1.32,3.07,3.07,0,0,1,2.77,1.34c.56.92.58,1.95.61,4.1v1.74c0,2.2,0,2.82.15,4.79Z" style="fill: #491e6e"/>
          <path d="M159.76,27.32c-1.68,0-2.11,0-3.65.06l-.11-.13,0-.87a4.07,4.07,0,0,1-2.95,1.21,4.69,4.69,0,0,1-2.93-1A5.78,5.78,0,0,1,148.37,22c0-2.3.65-4.16,2.21-5.37s3.81-1.3,5.48-1.25c0-2.55,0-3.11-.13-5.21L156,10l3.69-.58.16.13c-.09,3-.18,5.4-.18,11.31,0,2.93.07,4.27.16,6.29ZM155.3,18c-2.5,0-3,1.92-3,3.65,0,.44,0,3.22,2.18,3.22a2.84,2.84,0,0,0,1.52-.54c.06-2.71.09-3.29.06-6.26a4.38,4.38,0,0,0-.76-.07" style="fill: #491e6e"/>
          <g>
            <path d="M93.09,1.71h1.09V5.84H93.09Z" style="fill: #491e6e"/>
            <path d="M103,6.12a1.59,1.59,0,0,0,1.24.51,1,1,0,0,0,1.11-1.06V5.29a1.43,1.43,0,0,1-1.15.48,1.68,1.68,0,0,1-1.64-1.91V1.71h1.09V3.79c0,.78.3,1.13.76,1.13a1.32,1.32,0,0,0,.94-.59V1.71h1.09V5.52a1.94,1.94,0,0,1-2.2,2,2.48,2.48,0,0,1-1.73-.61Z" style="fill: #491e6e"/>
            <path d="M114.72,5.56a2.27,2.27,0,0,1-1.34.39A1.28,1.28,0,0,1,112,4.64V1.71H113V4.22a.66.66,0,0,0,.76.76h.92V1.71h1.09V5.84h-1.09Z" style="fill: #491e6e"/>
            <path d="M123,2a2.27,2.27,0,0,1,1.34-.38,1.27,1.27,0,0,1,1.42,1.3V5.85h-1.08V3.34c0-.57-.3-.76-.77-.76H123V5.85h-1.09V.13H123Z" style="fill: #491e6e"/>
            <path d="M157.16,2a2.21,2.21,0,0,1,1.33-.39,1.28,1.28,0,0,1,1.43,1.31V5.84h-1.09V3.33a.66.66,0,0,0-.76-.76h-.91V5.84h-1.09V.13h1.09Z" style="fill: #491e6e"/>
            <path d="M139.73,4.82V2.66H139l.28-1h.44V.57h1.1V1.71h.84v1h-.84V4.52c0,.26.13.46.37.46a.59.59,0,0,0,.38-.12l.23.82a1.31,1.31,0,0,1-.91.27A1,1,0,0,1,139.73,4.82Z" style="fill: #491e6e"/>
            <polygon points="92.21 2.43 92.21 2.42 89.62 2.42 89.62 1.18 92.27 1.18 92.27 0.13 88.41 0.13 88.41 5.84 89.62 5.84 89.62 3.46 91.91 3.46 92.21 2.43" style="fill: #491e6e"/>
            <path d="M153.39,4.82V2.66h-.72l.27-1h.45V.57h1.09V1.71h.84v1h-.84V4.52c0,.26.14.46.38.46a.61.61,0,0,0,.38-.12l.23.82a1.33,1.33,0,0,1-.91.27A1,1,0,0,1,153.39,4.82Z" style="fill: #491e6e"/>
            <path d="M147.27,3l-.87,2.81h-1.17L144,1.71h1.13l.78,2.78.9-2.78h1l.91,2.78.77-2.78h1.13L149.3,5.84h-1.15Z" style="fill: #491e6e"/>
            <polygon points="94.2 1 94.2 0 93.12 0.24 93.12 1 94.2 1" style="fill: #491e6e"/>
            <g>
              <path d="M151,1.71h1.09V5.84H151Z" style="fill: #491e6e"/>
              <polygon points="152.1 1 152.1 0 151.02 0.24 151.02 1 152.1 1" style="fill: #491e6e"/>
            </g>
            <path d="M109.21,1.63a1.9,1.9,0,0,0-2.1,2V4a2.1,2.1,0,0,0,4.2,0V3.62A1.89,1.89,0,0,0,109.21,1.63Zm1,2.36c0,.64-.32,1.11-1,1.11a1,1,0,0,1-1-1.11V3.62c0-.64.32-1.11,1-1.11a1,1,0,0,1,1,1.11Z" style="fill: #491e6e"/>
            <path d="M99.54,4.89a.55.55,0,0,1-.32.09c-.24,0-.38-.2-.38-.46V.13H97.75V4.82A1,1,0,0,0,98.92,6a1.33,1.33,0,0,0,.9-.27l0-.06Z" style="fill: #491e6e"/>
            <path d="M97.05,4.89a.59.59,0,0,1-.33.09c-.24,0-.37-.2-.37-.46V.13H95.26V4.82A1,1,0,0,0,96.42,6a1.3,1.3,0,0,0,.9-.27V5.62Z" style="fill: #491e6e"/>
            <path d="M137.26,3.2a1,1,0,0,1,.79-.43h.27l.29-1.16h0a1.75,1.75,0,0,0-1.32.66V1.71h-1.09V5.84h1.09Z" style="fill: #491e6e"/>
            <path d="M117.76,3.2a1,1,0,0,1,.8-.43h.26l.29-1.16h0a1.77,1.77,0,0,0-1.32.66V1.71h-1.09V5.84h1.09Z" style="fill: #491e6e"/>
            <path d="M130.23,4.63a2.73,2.73,0,0,1-1.59.49,1,1,0,0,1-1-.72l3-.46V3.61a2.1,2.1,0,0,0-4.19,0V4a1.89,1.89,0,0,0,2.1,2,3.08,3.08,0,0,0,1.87-.59Zm-2.62-1c0-.64.31-1.11,1-1.11a.93.93,0,0,1,1,.87l-2,.3Z" style="fill: #491e6e"/>
            <path d="M133.28,1.66a1.89,1.89,0,0,0-2.1,2V4A1.9,1.9,0,0,0,133,6a1.93,1.93,0,0,0,1.26-.39v.28h1.09V1.67ZM134.23,5h-.94a1,1,0,0,1-1-1.11V3.65c0-.64.32-1.11,1-1.11h.95Z" style="fill: #491e6e"/>
          </g>
        </g>
      </g>
    </g>
  </g>
</svg>
