<svg xmlns="http://www.w3.org/2000/svg" viewBox="0 0 68 32"><defs><style>.cls-1{fill:#fff;}</style></defs><title>fb</title><g id="Layer_2" data-name="Layer 2"><g id="Layer_1-2" data-name="Layer 1"><path class="cls-1" d="M15.72,23.67V16.16h2.52l.38-2.93h-2.9V11.36c0-.85.24-1.43,1.45-1.43h1.55V7.32a21.39,21.39,0,0,0-2.26-.12,3.54,3.54,0,0,0-3.78,3.26,4.12,4.12,0,0,0,0,.61v2.16H10.17v2.93H12.7v7.51Z"/><polygon class="cls-1" points="62.55 0 62.06 0.48 65.98 1.4 61.83 5.55 62.53 6.25 66.6 2.18 67.51 5.93 68 5.45 67.94 0.05 62.55 0"/><path class="cls-1" d="M30.43,14.89h-.16a2,2,0,0,0-1.42-.52c-.66,0-1.08.26-1.08.8s.37.8,1.32,1.1c1.29.41,2,.79,2,1.91s-.76,1.91-2.31,1.91a3.7,3.7,0,0,1-2.27-.74l.38-.73H27a2.76,2.76,0,0,0,1.78.68c.79,0,1.2-.28,1.2-.9s-.35-.82-1.58-1.2-1.72-.91-1.72-1.88c0-1.14,1-1.77,2.17-1.77a2.94,2.94,0,0,1,2,.61Z"/><path class="cls-1" d="M33.48,14.58h.08a3,3,0,0,1,2.21-1c1.25,0,1.8.61,1.8,1.83V20H36.38V15.68c0-.85-.28-1.19-1.1-1.19a2.72,2.72,0,0,0-1.76.78V20H32.33V11l1-.13h.19Z"/><path class="cls-1" d="M39,14.1a5.22,5.22,0,0,1,2.33-.55c1.52,0,2.22.6,2.22,1.82V18.8c0,.38.18.53.42.53a.93.93,0,0,0,.33-.07h.07l.16.61a1.85,1.85,0,0,1-.9.23c-.66,0-1.07-.26-1.14-.91h-.1a2,2,0,0,1-1.78.91c-1.06,0-1.79-.52-1.79-1.63s.56-1.44,1.67-1.78l1.86-.58V15.6c0-.83-.25-1.2-1.25-1.2a3.77,3.77,0,0,0-1.68.43h-.14Zm3.36,4.56V16.84l-1.4.44c-.7.22-1,.53-1,1.09,0,.74.41.92.92.92a2.11,2.11,0,0,0,1.44-.64Z"/><path class="cls-1" d="M46.67,14.59a1.8,1.8,0,0,1,1.55-1,1.41,1.41,0,0,1,.61.11l-.19,1.09h-.12a1.29,1.29,0,0,0-.55-.11,1.55,1.55,0,0,0-1.29.74V20h-1.2V13.74l.85-.12h.2v1Z"/><path class="cls-1" d="M52.37,20.09c-1.92,0-3.06-1.26-3.06-3.32s1.27-3.23,2.79-3.23c1.85,0,2.62,1.15,2.62,3.48H50.53c.06,1.33.61,2.22,2,2.22a2.26,2.26,0,0,0,1.66-.6h.14l.36.65A3.39,3.39,0,0,1,52.37,20.09Zm1.22-3.87c0-1.21-.43-1.89-1.45-1.89s-1.52.78-1.61,2h3.06Z"/><path class="cls-1" d="M65.74,7.83,65,8.56A15,15,0,0,1,52,31H16A15,15,0,0,1,16,1H52a14.86,14.86,0,0,1,7.63,2.11l.73-.73A15.93,15.93,0,0,0,52,0H16a16,16,0,0,0,0,32H52A16,16,0,0,0,65.74,7.83Z"/></g></g></svg>