<svg xmlns="http://www.w3.org/2000/svg" viewBox="0 0 32.02 32.01"><defs><style>.cls-1{fill:#fff;}</style></defs><title>mail</title><g id="Layer_2" data-name="Layer 2"><g id="Layer_1-2" data-name="Layer 1"><path class="cls-1" d="M29.75,7.82,29,8.56a15.06,15.06,0,1,1-5.37-5.45l.73-.73a16,16,0,1,0,5.37,5.45Z"/><polygon class="cls-1" points="26.57 0 26.08 0.49 30 1.4 25.85 5.55 26.55 6.25 30.62 2.18 31.53 5.93 32.02 5.45 32.01 0 26.57 0"/><path class="cls-1" d="M26,12.25V11L24.77,9.75H7.27L6,11V21l1.25,1.25h17.5L26,21Zm-1.25,7.5-2.9-5.92,2.9-1.44ZM7.27,12.33l2.9,1.45-2.9,6ZM16,16.7l4.73-2.31L24.14,21H7.89l3.4-6.66ZM24.77,11h0L16,15.31,7.27,11Z"/></g></g></svg>