<svg xmlns="http://www.w3.org/2000/svg" viewBox="0 0 32.02 32"><defs><style>.cls-1{fill:#fff;}</style></defs><title>twitter</title><g id="Layer_2" data-name="Layer 2"><g id="Layer_1-2" data-name="Layer 1"><path class="cls-1" d="M12.68,23.31A10.43,10.43,0,0,0,23.19,12.94v-.61A7.39,7.39,0,0,0,25,10.42,7,7,0,0,1,22.9,11a3.64,3.64,0,0,0,1.62-2,7.24,7.24,0,0,1-2.34.9,3.7,3.7,0,0,0-6.29,3.37A10.49,10.49,0,0,1,8.27,9.36a3.71,3.71,0,0,0,1.15,4.93,3.55,3.55,0,0,1-1.67-.46h0a3.7,3.7,0,0,0,3,3.62A3.62,3.62,0,0,1,9,17.56a3.7,3.7,0,0,0,3.45,2.56A7.34,7.34,0,0,1,7.88,21.7a6.26,6.26,0,0,1-.86,0,10.45,10.45,0,0,0,5.66,1.66"/><path class="cls-1" d="M29.75,7.82,29,8.55A15.06,15.06,0,1,1,23.65,3.1l.73-.73a16,16,0,1,0,5.37,5.45Z"/><polygon class="cls-1" points="26.57 0 26.08 0.48 30 1.4 25.85 5.55 26.55 6.25 30.62 2.18 31.53 5.93 32.02 5.45 31.96 0.05 26.57 0"/></g></g></svg>